<svg width="35" height="35" viewBox="0 0 35 35" fill="none" xmlns="http://www.w3.org/2000/svg">
<rect width="35" height="35" rx="17.5" fill="#FFECEC"/>
<path d="M23.5454 15.3636C23.5454 14.6115 23.3972 13.8668 23.1094 13.1719C22.8216 12.477 22.3997 11.8457 21.8679 11.3138C21.3361 10.782 20.7047 10.3601 20.0098 10.0723C19.315 9.78449 18.5702 9.63635 17.8181 9.63635C17.066 9.63635 16.3212 9.78449 15.6264 10.0723C14.9315 10.3601 14.3001 10.782 13.7683 11.3138C13.2365 11.8457 12.8146 12.477 12.5268 13.1719C12.239 13.8668 12.0908 14.6115 12.0908 15.3636C12.0908 16.4984 12.4263 17.5539 12.9949 18.4441H12.9884C14.9193 21.4673 17.8181 26 17.8181 26L22.6478 18.4441H22.6421C23.2315 17.5247 23.545 16.4557 23.5454 15.3636ZM17.8181 17.8182C17.1671 17.8182 16.5428 17.5596 16.0825 17.0993C15.6222 16.6389 15.3635 16.0146 15.3635 15.3636C15.3635 14.7126 15.6222 14.0883 16.0825 13.628C16.5428 13.1677 17.1671 12.9091 17.8181 12.9091C18.4691 12.9091 19.0934 13.1677 19.5537 13.628C20.014 14.0883 20.2726 14.7126 20.2726 15.3636C20.2726 16.0146 20.014 16.6389 19.5537 17.0993C19.0934 17.5596 18.4691 17.8182 17.8181 17.8182Z" fill="#F53838"/>
</svg>
