<svg xmlns="http://www.w3.org/2000/svg" viewBox="0 0 177 133"><defs><style>.cls-1{fill:#1d1d1b;}</style></defs><g id="Layer_2" data-name="Layer 2"><path class="cls-1" d="M9.65,125.49a18.56,18.56,0,0,0,3.6.3A10.62,10.62,0,0,0,24,114.91a12,12,0,0,0-1-5,10.92,10.92,0,0,0-2.66-3.63A11.47,11.47,0,0,0,16.63,104a12.63,12.63,0,0,0-4.25-.74H.15v28.63H7.77v-7.06l.36.16A7.93,7.93,0,0,0,9.65,125.49Zm-1.88-6.58v-8.53h3.66a6.63,6.63,0,0,1,2.4.41,3.52,3.52,0,0,1,1.71,1.41,5,5,0,0,1,.63,2.71,4.51,4.51,0,0,1-1.36,3.32h0a4.67,4.67,0,0,1-3.38,1.33A9.6,9.6,0,0,1,9,119.27c-.37-.09-.71-.19-1-.3Z"/><path class="cls-1" d="M53.46,106.57a14.67,14.67,0,0,0-4.77-2.93,16,16,0,0,0-11.18,0,14.67,14.67,0,0,0-4.77,2.93,13.91,13.91,0,0,0-3.31,4.7,17.19,17.19,0,0,0,0,12.67,13.87,13.87,0,0,0,3.31,4.7,14.78,14.78,0,0,0,4.77,2.93,16,16,0,0,0,11.18,0,14.6,14.6,0,0,0,4.77-2.93,14,14,0,0,0,3.31-4.7,17.19,17.19,0,0,0,0-12.67A14,14,0,0,0,53.46,106.57Zm-4.21,15.05a7.2,7.2,0,0,1-2.5,2.82,6.62,6.62,0,0,1-3.65,1,6.53,6.53,0,0,1-3.63-1,7.36,7.36,0,0,1-2.5-2.82,9.22,9.22,0,0,1,0-8,7.44,7.44,0,0,1,2.5-2.82,6.53,6.53,0,0,1,3.63-1,6.62,6.62,0,0,1,3.65,1,7.2,7.2,0,0,1,2.5,2.82,9.41,9.41,0,0,1,0,8Z"/><path class="cls-1" d="M122.36,131.15a15.53,15.53,0,0,0,13,0,11.17,11.17,0,0,0,6.41-10.5V103.2h-7.62v16.89a6.46,6.46,0,0,1-.57,2.76,4.2,4.2,0,0,1-1.76,1.94,6.78,6.78,0,0,1-6,0,4.3,4.3,0,0,1-1.76-1.94,6.46,6.46,0,0,1-.57-2.76V103.2h-7.61v17.45a11.16,11.16,0,0,0,6.42,10.5Z"/><polygon class="cls-1" points="176.83 103.29 167.57 103.29 162.57 112.37 156.69 103.29 147.42 103.29 157.36 117.78 157.25 117.93 147.43 131.92 156.68 131.92 162.12 122.98 167.57 131.92 176.85 131.92 167.32 117.12 176.83 103.29"/><polygon class="cls-1" points="63.09 103.2 63.09 131.92 86.12 131.92 81.86 125.25 70.72 125.25 70.72 103.2 63.09 103.2"/><polygon class="cls-1" points="90.63 103.2 90.63 131.92 113.66 131.92 109.4 125.25 98.26 125.25 98.26 103.2 90.63 103.2"/><polygon class="cls-1" points="27.77 81.8 45.94 81.8 27.77 37.93 27.77 81.8"/><path class="cls-1" d="M105.67.42H27.77V24.83l31.33,57H66l5.56-22.69L46.83,24.41c1.43-.3,24.23-6.17,31.9-9.22h0l.07,0A134.38,134.38,0,0,0,105.67.42Z"/><path class="cls-1" d="M127.45.42s-.38,10-.57,13C124.23,44.05,115.29,61,90.32,65.66l-.1,0L103.74,81.8h41.49V.42Z"/><path class="cls-1" d="M115.49,27c-2.65,4.93-4.29,8.37-7,13.28h-1.66s2.76-5.85,3.36-9.38l-3,.08c-5.53,5.91-18,14.31-23,15.85l.12,4a51.85,51.85,0,0,0,10.58,1.88l0,1.15-14.18.33,0,0-6.39-7.7c13.24-4.88,28.62-17,31.12-19.41C105.41,27,113.43,27.05,115.49,27Z"/><path class="cls-1" d="M96.1,14.48a100.47,100.47,0,0,1-7.53,17.61,109.9,109.9,0,0,1-17.8,10l-10.84-13c1.17-.31,2.65-.71,4.15-1.14l6.57,5.77-2.93-6.87c1.75-.52,4.29-1.12,6.32-1.76L76,29.79l.63-5.53A68.42,68.42,0,0,0,96.1,14.48Z"/><path class="cls-1" d="M115.49,14.51l-11.89,4.7a73.41,73.41,0,0,1-9,8.35,123,123,0,0,0,3.61-13.11Z"/><path class="cls-1" d="M100.38,37.07c0-.14-.12-.26-.18-.39a7.28,7.28,0,0,0-2.27-2.56,101.54,101.54,0,0,1-11.41,7.5h0a7.24,7.24,0,0,0,1.62,3.25l.18.2a7.33,7.33,0,0,0,12.06-8ZM94.6,45a3.67,3.67,0,0,1-3.29-1.71,1.43,1.43,0,0,1-.15-.22,3.73,3.73,0,0,1,6.12-4.19,3.15,3.15,0,0,1,.22.29,3.67,3.67,0,0,1,.64,1.92A3.73,3.73,0,0,1,94.6,45Z"/></g></svg>