<svg xmlns="http://www.w3.org/2000/svg" viewBox="0 0 253 83"><defs><style>.cls-1{fill:#1d1d1b;}</style></defs><g id="Layer_2" data-name="Layer 2"><polygon class="cls-1" points="0.38 82.06 18.55 82.06 0.38 38.19 0.38 82.06"/><path class="cls-1" d="M78.28.68H.38V25.09l31.34,57h6.91l5.56-22.69L19.44,24.67c1.43-.3,24.24-6.17,31.9-9.23h0l.06,0A133.38,133.38,0,0,0,78.28.68Z"/><path class="cls-1" d="M100.06.68s-.38,10-.56,13C96.85,44.31,87.91,61.2,62.93,65.92l-.09,0L76.36,82.06h41.49V.68Z"/><path class="cls-1" d="M88.11,27.22c-2.66,4.93-4.3,8.37-7,13.28H79.46s2.77-5.85,3.36-9.38l-3,.08c-5.54,5.91-18,14.31-23,15.85l.12,4A52.41,52.41,0,0,0,67.5,52.89l0,1.15-14.18.34,0-.05-6.4-7.7c13.24-4.88,28.63-17,31.12-19.41C78,27.22,86.05,27.31,88.11,27.22Z"/><path class="cls-1" d="M68.71,14.74a100.47,100.47,0,0,1-7.53,17.61,109.9,109.9,0,0,1-17.8,10l-10.83-13c1.16-.31,2.64-.71,4.14-1.14L43.26,34l-2.93-6.87c1.76-.52,4.29-1.12,6.32-1.76l2,4.68.63-5.53A68.35,68.35,0,0,0,68.71,14.74Z"/><path class="cls-1" d="M88.11,14.77l-11.9,4.69a73.76,73.76,0,0,1-9,8.35,124.52,124.52,0,0,0,3.61-13.1Z"/><path class="cls-1" d="M73,37.32a2.69,2.69,0,0,0-.19-.38,7.28,7.28,0,0,0-2.26-2.57,103,103,0,0,1-11.41,7.51h0a7.34,7.34,0,0,0,1.62,3.25l.18.19A7.33,7.33,0,0,0,73.65,40,7.59,7.59,0,0,0,73,37.32Zm-5.78,7.94a3.67,3.67,0,0,1-3.3-1.71,1,1,0,0,1-.14-.22,3.57,3.57,0,0,1-.46-1.61,3.72,3.72,0,0,1,6.57-2.58,1.48,1.48,0,0,1,.22.29,3.77,3.77,0,0,1,.65,1.92A3.73,3.73,0,0,1,67.22,45.26Z"/><path class="cls-1" d="M242.13,26.73H227.86V.19H218V35.4h29.62Z"/><path class="cls-1" d="M170.15,4.43a12.87,12.87,0,0,0-4.27-2.68A13.49,13.49,0,0,0,161,.84h-14V35.4h9.11V27.2a8.36,8.36,0,0,0,1.75.57,20.1,20.1,0,0,0,4.09.36,11.76,11.76,0,0,0,6-1.63,12.43,12.43,0,0,0,4.58-4.61,13.54,13.54,0,0,0,1.76-7,15.16,15.16,0,0,0-1.15-6.08A13.24,13.24,0,0,0,170.15,4.43Zm-6.6,14.21A4.76,4.76,0,0,1,160,20.13a10.31,10.31,0,0,1-2.66-.33q-.6-.16-1.14-.36V9.87H160a6.9,6.9,0,0,1,2.58.46,3.76,3.76,0,0,1,1.78,1.55,6,6,0,0,1,.65,3A5.2,5.2,0,0,1,163.55,18.64Z"/><path class="cls-1" d="M208.62,4.82a17.5,17.5,0,0,0-5.75-3.54,19.32,19.32,0,0,0-13.46,0,17.61,17.61,0,0,0-5.75,3.54,16.63,16.63,0,0,0-4,5.67,18.85,18.85,0,0,0-1.47,7.63,18.86,18.86,0,0,0,1.47,7.64,16.83,16.83,0,0,0,4,5.67A17.58,17.58,0,0,0,189.41,35a19.32,19.32,0,0,0,13.46,0,17.48,17.48,0,0,0,5.75-3.53,16.69,16.69,0,0,0,4-5.67,18.86,18.86,0,0,0,1.47-7.64,18.85,18.85,0,0,0-1.47-7.63A16.5,16.5,0,0,0,208.62,4.82Zm-5.46,17.92A8.15,8.15,0,0,1,200.29,26a7.46,7.46,0,0,1-4.15,1.19A7.34,7.34,0,0,1,192,26a8.38,8.38,0,0,1-2.87-3.22,10,10,0,0,1-1.05-4.62,9.91,9.91,0,0,1,1.05-4.61A8.41,8.41,0,0,1,192,10.28a7.33,7.33,0,0,1,4.12-1.18,7.46,7.46,0,0,1,4.15,1.18,8.18,8.18,0,0,1,2.87,3.23,10.15,10.15,0,0,1,1,4.61A10.19,10.19,0,0,1,203.16,22.74Z"/><path class="cls-1" d="M202.23,67.53a7.55,7.55,0,0,1-.67,3.21,5,5,0,0,1-2.05,2.2,8.28,8.28,0,0,1-7.06,0,4.9,4.9,0,0,1-2-2.2,7.41,7.41,0,0,1-.67-3.21V46.83H179.65V68.22a13.91,13.91,0,0,0,2.21,7.88,14.37,14.37,0,0,0,5.93,5.07,20,20,0,0,0,16.41,0,14.47,14.47,0,0,0,5.9-5.07,13.91,13.91,0,0,0,2.21-7.88V46.83H202.23Z"/><polygon class="cls-1" points="252.62 46.93 241.06 46.93 235.39 57.6 228.71 46.93 217.15 46.93 228.96 64.75 217.15 82.14 228.71 82.14 234.88 71.63 241.06 82.14 252.62 82.14 241.31 63.96 252.62 46.93"/><path class="cls-1" d="M170.69,73.47H156.88V46.93h-9.82V82.14h29.16Z"/></g></svg>