<svg xmlns="http://www.w3.org/2000/svg" viewBox="0 0 300 55"><defs><style>.cls-1{fill:#1d1d1b;}</style></defs><g id="Layer_2" data-name="Layer 2"><path class="cls-1" d="M110.08,46.56a21.14,21.14,0,0,0,4.11.34A12.38,12.38,0,0,0,124.77,41a12.32,12.32,0,0,0,1.75-6.58,13.74,13.74,0,0,0-1.15-5.76,12.38,12.38,0,0,0-3-4.16A13.15,13.15,0,0,0,118.06,22a14.4,14.4,0,0,0-4.85-.85h-14V53.86h8.9V45.92l.23.1A8.11,8.11,0,0,0,110.08,46.56Zm-2-7.69V29.43h4a7.45,7.45,0,0,1,2.68.45,3.9,3.9,0,0,1,1.88,1.55,5.53,5.53,0,0,1,.69,3,5,5,0,0,1-1.5,3.67,5.13,5.13,0,0,1-3.75,1.48,11.35,11.35,0,0,1-2.73-.32c-.4-.1-.8-.22-1.17-.35Z"/><path class="cls-1" d="M159.88,24.88a16.66,16.66,0,0,0-5.45-3.35,18.3,18.3,0,0,0-12.77,0,16.76,16.76,0,0,0-5.45,3.35,15.8,15.8,0,0,0-3.78,5.37,17.88,17.88,0,0,0-1.4,7.24,17.85,17.85,0,0,0,1.4,7.24,15.8,15.8,0,0,0,3.78,5.38,16.93,16.93,0,0,0,5.45,3.35,18.45,18.45,0,0,0,12.77,0,16.83,16.83,0,0,0,5.45-3.35,15.82,15.82,0,0,0,3.79-5.38,18,18,0,0,0,1.39-7.24,18,18,0,0,0-1.39-7.24A15.78,15.78,0,0,0,159.88,24.88Zm-5,17.11a8,8,0,0,1-2.8,3.15,7.33,7.33,0,0,1-4.06,1.16,7.22,7.22,0,0,1-4-1.16,8.31,8.31,0,0,1-2.8-3.15,10.32,10.32,0,0,1,0-9,8.31,8.31,0,0,1,2.8-3.15,7.22,7.22,0,0,1,4-1.16,7.35,7.35,0,0,1,4.06,1.16,8,8,0,0,1,2.8,3.15,10.51,10.51,0,0,1,0,9Z"/><path class="cls-1" d="M258.13,48.26a13.2,13.2,0,0,0,2-7.31V21h-8.9V40.31a7.31,7.31,0,0,1-.63,3.08,4.74,4.74,0,0,1-1.94,2.14,7.54,7.54,0,0,1-6.64,0,4.74,4.74,0,0,1-1.94-2.14,7.31,7.31,0,0,1-.63-3.08V21h-8.9V41a12.8,12.8,0,0,0,7.36,12,17.82,17.82,0,0,0,14.89,0A13.3,13.3,0,0,0,258.13,48.26Z"/><polygon class="cls-1" points="299.99 21.12 289.17 21.12 283.56 31.3 276.96 21.12 266.13 21.12 277.5 37.69 266.14 53.86 276.96 53.86 283.06 43.84 289.16 53.86 300 53.86 289.11 36.95 299.99 21.12"/><polygon class="cls-1" points="170.59 21.02 170.59 53.86 197.09 53.86 192.09 46.03 179.51 46.03 179.51 21.02 170.59 21.02"/><polygon class="cls-1" points="201.83 21.02 201.83 53.86 228.33 53.86 223.33 46.03 210.75 46.03 210.75 21.02 201.83 21.02"/><polygon class="cls-1" points="0 54.6 12.1 54.6 0 25.38 0 54.6"/><path class="cls-1" d="M51.89.4H0V16.66L20.88,54.6h4.6l3.7-15.11L12.7,16.38c1-.2,16.14-4.11,21.25-6.15h0A89.41,89.41,0,0,0,51.89.4Z"/><path class="cls-1" d="M66.4.4S66.15,7.06,66,9C64.26,29.46,58.3,40.71,41.67,43.85l-.06,0,9,10.73H78.25V.4Z"/><path class="cls-1" d="M58.44,18.07c-1.77,3.29-2.87,5.58-4.66,8.85h-1.1a32.9,32.9,0,0,0,2.24-6.25l-2,.05c-3.69,3.94-12,9.53-15.36,10.56l.08,2.64a35.35,35.35,0,0,0,7.05,1.25v.76l-9.44.23,0,0L31,31c8.82-3.25,19.07-11.33,20.73-12.93C51.72,18.07,57.07,18.13,58.44,18.07Z"/><path class="cls-1" d="M45.52,9.76a67.13,67.13,0,0,1-5,11.73,73.11,73.11,0,0,1-11.86,6.7l-7.21-8.68,2.76-.76,4.37,3.84L26.61,18c1.17-.34,2.86-.74,4.21-1.17L32.13,20l.42-3.68A45.67,45.67,0,0,0,45.52,9.76Z"/><path class="cls-1" d="M58.44,9.78l-7.93,3.13a48.65,48.65,0,0,1-6,5.56A83,83,0,0,0,47,9.74Z"/><path class="cls-1" d="M48.37,24.81a2.06,2.06,0,0,0-.12-.26,4.8,4.8,0,0,0-1.51-1.71,68.23,68.23,0,0,1-7.6,5h0A4.8,4.8,0,0,0,40.22,30l.12.13a4.88,4.88,0,0,0,8-5.33Zm-3.85,5.28A2.43,2.43,0,0,1,42.33,29l-.1-.15a2.48,2.48,0,0,1,2.05-3.68,2.45,2.45,0,0,1,2,.89,1.25,1.25,0,0,1,.15.19,2.42,2.42,0,0,1,.43,1.28A2.48,2.48,0,0,1,44.52,30.09Z"/></g></svg>