<svg xmlns="http://www.w3.org/2000/svg" viewBox="0 0 125 204"><defs><style>.cls-1{fill:#1d1d1b;}</style></defs><g id="Layer_2" data-name="Layer 2"><polygon class="cls-1" points="0.03 81.56 18.2 81.56 0.03 37.69 0.03 81.56"/><path class="cls-1" d="M77.93.18H0V24.59l31.34,57h6.91l5.56-22.69L19.09,24.17c1.43-.3,24.23-6.17,31.9-9.23h0l.06,0A133.7,133.7,0,0,0,77.93.18Z"/><path class="cls-1" d="M99.71.18s-.38,10-.57,13C96.5,43.81,87.55,60.7,62.58,65.42l-.09,0L76,81.56H117.5V.18Z"/><path class="cls-1" d="M87.76,26.72c-2.66,4.93-4.3,8.37-7,13.28H79.11s2.77-5.85,3.36-9.38l-3,.08c-5.54,5.91-18,14.31-23,15.85l.12,4a52.18,52.18,0,0,0,10.57,1.87l0,1.15L53,53.88l0-.05-6.4-7.7c13.24-4.88,28.63-17,31.12-19.41C77.67,26.72,85.7,26.81,87.76,26.72Z"/><path class="cls-1" d="M68.36,14.24a100.47,100.47,0,0,1-7.53,17.61A109.9,109.9,0,0,1,43,41.9l-10.83-13c1.16-.31,2.64-.71,4.14-1.14l6.57,5.77L40,26.63c1.76-.52,4.29-1.12,6.32-1.76l2,4.68L48.89,24A68.35,68.35,0,0,0,68.36,14.24Z"/><path class="cls-1" d="M87.76,14.27,75.86,19a73.76,73.76,0,0,1-9,8.35,124.52,124.52,0,0,0,3.61-13.1Z"/><path class="cls-1" d="M72.64,36.82a2.64,2.64,0,0,0-.18-.38,7.21,7.21,0,0,0-2.27-2.57,102,102,0,0,1-11.4,7.51h0a7.14,7.14,0,0,0,1.62,3.25l.18.19A7.33,7.33,0,0,0,73.3,39.51,7.39,7.39,0,0,0,72.64,36.82Zm-5.78,7.94a3.65,3.65,0,0,1-3.29-1.71,1.7,1.7,0,0,1-.15-.22,3.73,3.73,0,0,1,6.12-4.19,2,2,0,0,1,.22.29,3.72,3.72,0,0,1-2.9,5.83Z"/><polygon class="cls-1" points="84.59 106.03 84.59 147.36 119.07 147.36 112.82 137.56 95.76 137.56 95.76 106.03 84.59 106.03"/><path class="cls-1" d="M13,138.29a23.79,23.79,0,0,0,4.82.43,13.86,13.86,0,0,0,7-1.9,14.71,14.71,0,0,0,5.35-5.39,15.91,15.91,0,0,0,2.05-8.15,17.78,17.78,0,0,0-1.34-7.13A15.42,15.42,0,0,0,27.27,111a15.28,15.28,0,0,0-5-3.13,15.91,15.91,0,0,0-5.67-1.06H.26v40.56H10.58v-9.89l.35.16A9.46,9.46,0,0,0,13,138.29Zm-2.38-9.47V117h4.76a8.45,8.45,0,0,1,3.17.57,4.71,4.71,0,0,1,2.23,1.94,7.33,7.33,0,0,1,.81,3.75,6.36,6.36,0,0,1-1.77,4.58,5.92,5.92,0,0,1-4.44,1.86,12.4,12.4,0,0,1-3.22-.41c-.47-.13-.93-.27-1.38-.43Z"/><path class="cls-1" d="M73,111.45a20.67,20.67,0,0,0-6.75-4.14,22.56,22.56,0,0,0-15.81,0,20.71,20.71,0,0,0-6.76,4.14A19.74,19.74,0,0,0,39,118.11a24.12,24.12,0,0,0,0,17.94,19.6,19.6,0,0,0,4.68,6.65,20.57,20.57,0,0,0,6.76,4.15,22.56,22.56,0,0,0,15.81,0A20.53,20.53,0,0,0,73,142.7a19.48,19.48,0,0,0,4.69-6.65,24.12,24.12,0,0,0,0-17.94A19.62,19.62,0,0,0,73,111.45Zm-6.1,21.23a10,10,0,0,1-3.49,3.92,9.16,9.16,0,0,1-5.07,1.45,9,9,0,0,1-5-1.45,10.34,10.34,0,0,1-3.48-3.92,12.89,12.89,0,0,1,0-11.2,10.2,10.2,0,0,1,3.48-3.92,9,9,0,0,1,5-1.45,9.16,9.16,0,0,1,5.07,1.44,10.07,10.07,0,0,1,3.49,3.93,13.17,13.17,0,0,1,0,11.2Z"/><path class="cls-1" d="M48.51,201.76a23.56,23.56,0,0,0,19.27,0,17,17,0,0,0,6.92-5.94,16.34,16.34,0,0,0,2.58-9.23V161.43H65.81v24.35A9.05,9.05,0,0,1,65,189.7a6.13,6.13,0,0,1-2.53,2.73,8.69,8.69,0,0,1-4.32,1,8.69,8.69,0,0,1-4.32-1,6.13,6.13,0,0,1-2.53-2.73,9,9,0,0,1-.83-3.92V161.43H39v25.16a16.26,16.26,0,0,0,2.59,9.23A16.88,16.88,0,0,0,48.51,201.76Z"/><polygon class="cls-1" points="124.95 161.56 111.84 161.56 104.97 174.48 96.87 161.56 83.75 161.56 97.61 182.47 97.52 182.61 83.75 202.89 96.87 202.89 104.35 190.16 111.84 202.89 124.97 202.89 111.69 181.53 124.95 161.56"/><polygon class="cls-1" points="0.26 161.56 0.26 202.89 34.2 202.89 27.95 193.09 11.43 193.09 11.43 161.56 0.26 161.56"/></g></svg>