<svg xmlns="http://www.w3.org/2000/svg" viewBox="0 0 118 82"><defs><style>.cls-1{fill:#1d1d1b;}</style></defs><g id="Layer_2" data-name="Layer 2"><polygon class="cls-1" points="0.27 81.69 18.43 81.69 0.27 37.82 0.27 81.69"/><path class="cls-1" d="M78.17.31H.27V24.72l31.33,57h6.92L44.08,59,19.33,24.3c1.43-.3,24.23-6.17,31.9-9.23h0l.07,0A134,134,0,0,0,78.17.31Z"/><path class="cls-1" d="M100,.31s-.38,10-.57,13C96.73,43.94,87.79,60.84,62.82,65.55l-.1,0L76.24,81.69h41.49V.31Z"/><path class="cls-1" d="M88,26.85c-2.65,4.93-4.29,8.37-7,13.28H79.35s2.76-5.85,3.36-9.38l-3,.08c-5.53,5.91-18,14.31-23.05,15.85l.12,4a52.41,52.41,0,0,0,10.58,1.87l0,1.15L53.22,54l0,0-6.39-7.7c13.24-4.88,28.62-17,31.12-19.41C77.91,26.85,85.93,26.94,88,26.85Z"/><path class="cls-1" d="M68.6,14.37A100.47,100.47,0,0,1,61.07,32,109.9,109.9,0,0,1,43.27,42L32.43,29c1.17-.31,2.65-.71,4.15-1.14l6.57,5.77-2.93-6.87c1.75-.52,4.29-1.12,6.32-1.76l2,4.68.63-5.53A68.42,68.42,0,0,0,68.6,14.37Z"/><path class="cls-1" d="M88,14.4,76.1,19.1a74.3,74.3,0,0,1-9,8.35,123,123,0,0,0,3.61-13.11Z"/><path class="cls-1" d="M72.88,37c0-.14-.12-.26-.18-.39A7.28,7.28,0,0,0,70.43,34,104.39,104.39,0,0,1,59,41.51h0a7.34,7.34,0,0,0,1.62,3.25l.18.2a7.33,7.33,0,0,0,12.06-8ZM67.1,44.89a3.67,3.67,0,0,1-3.29-1.7,1.14,1.14,0,0,1-.15-.23,3.67,3.67,0,0,1-.46-1.61,3.73,3.73,0,0,1,6.58-2.57,3.15,3.15,0,0,1,.22.29A3.67,3.67,0,0,1,70.64,41,3.72,3.72,0,0,1,67.1,44.89Z"/></g></svg>