<svg width="35" height="35" viewBox="0 0 35 35" fill="none" xmlns="http://www.w3.org/2000/svg">
<rect width="35" height="35" rx="17.5" fill="#FFECEC"/>
<path d="M25.0451 11.1364H11.9542C11.5202 11.1364 11.104 11.3088 10.7972 11.6156C10.4903 11.9225 10.3179 12.3387 10.3179 12.7727V16.0454C10.3179 16.4794 10.4903 16.8956 10.7972 17.2025C11.104 17.5094 11.5202 17.6818 11.9542 17.6818H25.0451C25.4791 17.6818 25.8953 17.5094 26.2022 17.2025C26.5091 16.8956 26.6815 16.4794 26.6815 16.0454V12.7727C26.6815 12.3387 26.5091 11.9225 26.2022 11.6156C25.8953 11.3088 25.4791 11.1364 25.0451 11.1364ZM20.9542 14.4091C20.9542 14.8609 20.5879 15.2273 20.1361 15.2273C19.6842 15.2273 19.3179 14.8609 19.3179 14.4091C19.3179 13.9572 19.6842 13.5909 20.1361 13.5909C20.5879 13.5909 20.9542 13.9572 20.9542 14.4091ZM24.227 14.4091C24.227 14.8609 23.8606 15.2273 23.4088 15.2273C22.9569 15.2273 22.5906 14.8609 22.5906 14.4091C22.5906 13.9572 22.9569 13.5909 23.4088 13.5909C23.8606 13.5909 24.227 13.9572 24.227 14.4091ZM25.0451 19.3182H11.9542C11.5202 19.3182 11.104 19.4906 10.7972 19.7975C10.4903 20.1043 10.3179 20.5205 10.3179 20.9545V24.2273C10.3179 24.6613 10.4903 25.0775 10.7972 25.3843C11.104 25.6912 11.5202 25.8636 11.9542 25.8636H25.0451C25.4791 25.8636 25.8953 25.6912 26.2022 25.3843C26.5091 25.0775 26.6815 24.6613 26.6815 24.2273V20.9545C26.6815 20.5205 26.5091 20.1043 26.2022 19.7975C25.8953 19.4906 25.4791 19.3182 25.0451 19.3182ZM20.9542 22.5909C20.9542 23.0428 20.5879 23.4091 20.1361 23.4091C19.6842 23.4091 19.3179 23.0428 19.3179 22.5909C19.3179 22.139 19.6842 21.7727 20.1361 21.7727C20.5879 21.7727 20.9542 22.139 20.9542 22.5909ZM24.227 22.5909C24.227 23.0428 23.8606 23.4091 23.4088 23.4091C22.9569 23.4091 22.5906 23.0428 22.5906 22.5909C22.5906 22.139 22.9569 21.7727 23.4088 21.7727C23.8606 21.7727 24.227 22.139 24.227 22.5909Z" fill="#F53838"/>
</svg>
