<svg width="35" height="35" viewBox="0 0 35 35" fill="none" xmlns="http://www.w3.org/2000/svg">
<rect width="35" height="35" rx="17.5" fill="#FFECEC"/>
<path fill-rule="evenodd" clip-rule="evenodd" d="M17.818 16.8363C18.5992 16.8363 19.3484 16.526 19.9008 15.9736C20.4532 15.4213 20.7635 14.6721 20.7635 13.8909C20.7635 13.1097 20.4532 12.3605 19.9008 11.8081C19.3484 11.2558 18.5992 10.9454 17.818 10.9454C17.0369 10.9454 16.2877 11.2558 15.7353 11.8081C15.1829 12.3605 14.8726 13.1097 14.8726 13.8909C14.8726 14.6721 15.1829 15.4213 15.7353 15.9736C16.2877 16.526 17.0369 16.8363 17.818 16.8363ZM13.6442 25.6727C12.1537 25.6727 10.8981 24.4197 11.4685 23.0426C11.8139 22.2088 12.3201 21.4511 12.9583 20.813C13.5965 20.1748 14.3541 19.6685 15.188 19.3231C16.0218 18.9777 16.9155 18.8 17.818 18.8C18.7206 18.8 19.6143 18.9777 20.4481 19.3231C21.282 19.6685 22.0396 20.1748 22.6778 20.813C23.316 21.4511 23.8222 22.2088 24.1676 23.0426C24.738 24.4197 23.4824 25.6727 21.9919 25.6727H13.6442Z" fill="#F53838"/>
</svg>
